<svg width="122" height="132" viewBox="0 0 122 132" fill="none" xmlns="http://www.w3.org/2000/svg">
<path d="M50 32C77.6142 32 100 54.3858 100 82C100 109.614 77.6142 132 50 132C22.3858 132 0 109.614 0 82C0 54.3858 22.3858 32 50 32ZM50.5 51C33.103 51 19 64.8792 19 82C19 99.1208 33.103 113 50.5 113C67.897 113 82 99.1208 82 82C82 64.8792 67.897 51 50.5 51Z" fill="#A2E6F9"/>
<line x1="8.27241" y1="47.3654" x2="37.3767" y2="40.0896" stroke="#FF008C" stroke-width="6"/>
<path d="M59 47L88.1089 54.2577" stroke="#FF008C" stroke-width="6"/>
<ellipse cx="28" cy="70.5" rx="10" ry="17.5" fill="#7B00FF"/>
<ellipse cx="69" cy="70.5" rx="10" ry="17.5" fill="#7B00FF"/>
<line x1="22.7289" y1="109.479" x2="77.4045" y2="103.515" stroke="#7B00FF" stroke-width="5"/>
<path d="M88.2492 54.1571L88.3752 53.8867C89.743 51.0321 91.1079 48.8892 92.47 47.4582C93.8322 46.0271 95.2841 45.031 96.8257 44.4699C98.3673 43.9088 100.081 43.5284 101.966 43.3286C103.104 43.2011 104.198 42.934 105.247 42.5272C106.303 42.1054 107.261 41.501 108.122 40.7138C108.998 39.9337 109.712 38.9503 110.266 37.7638C110.952 36.2919 111.202 34.8542 111.015 33.4506C110.829 32.0471 110.294 30.7828 109.41 29.6577C108.527 28.5327 107.379 27.641 105.968 26.9827C104.736 26.4084 103.43 26.1104 102.051 26.0888C100.671 26.0672 99.3427 26.426 98.0655 27.1652C96.7882 27.9044 95.6763 29.1322 94.7297 30.8484L89.0524 28.2011C90.3632 25.7038 92.0431 23.8267 94.0921 22.5696C96.1561 21.3196 98.4035 20.6762 100.834 20.6394C103.28 20.6097 105.72 21.1621 108.153 22.2967C110.796 23.5293 112.849 25.1265 114.311 27.0883C115.788 29.0572 116.633 31.2064 116.845 33.536C117.072 35.8726 116.639 38.2124 115.547 40.5554C114.776 42.2076 113.824 43.5829 112.69 44.6815C111.571 45.7871 110.293 46.645 108.857 47.2551C107.435 47.8722 105.875 48.2782 104.175 48.4729C102.468 48.6826 101.003 49.06 99.7796 49.605C98.5633 50.1349 97.4843 50.9392 96.5426 52.0177C95.6008 53.0962 94.6807 54.5597 93.7822 56.408L93.6561 56.6784L88.2492 54.1571ZM84.9137 68.8389C83.8022 68.3207 83.0341 67.4779 82.6093 66.3107C82.1844 65.1435 82.2312 64.0042 82.7494 62.8927C83.2677 61.7813 84.1104 61.0132 85.2777 60.5884C86.4449 60.1635 87.5842 60.2102 88.6956 60.7285C89.807 61.2468 90.5752 62.0895 91 63.2567C91.4248 64.4239 91.3781 65.5633 90.8599 66.6747C90.5167 67.4106 90.0138 67.999 89.3511 68.4397C88.7035 68.8874 87.9843 69.1554 87.1934 69.2437C86.4245 69.324 85.6646 69.1891 84.9137 68.8389Z" fill="#FF0004"/>
</svg>
