<svg width="55" height="81" viewBox="0 0 55 81" fill="none" xmlns="http://www.w3.org/2000/svg">
<path d="M18.9264 55.1049L19.0004 54.6852C19.8322 50.2404 20.9234 46.7788 22.2739 44.3004C23.6244 41.8221 25.2595 39.9108 27.1793 38.5666C29.0991 37.2223 31.3227 36.0639 33.85 35.0912C35.3736 34.4944 36.784 33.7214 38.0812 32.7722C39.3825 31.7997 40.4816 30.6112 41.3783 29.2068C42.2983 27.8064 42.9207 26.1853 43.2455 24.3435C43.6483 22.0587 43.4615 19.9824 42.6851 18.1146C41.9086 16.2469 40.7029 14.7001 39.068 13.4743C37.4331 12.2484 35.5199 11.4423 33.3283 11.0559C31.4165 10.7188 29.5048 10.7904 27.5931 11.2706C25.6814 11.7509 23.981 12.7372 22.4918 14.2295C21.0027 15.7218 19.9223 17.827 19.2507 20.5453L10.4378 18.9913C11.3232 15.0607 12.9472 11.8493 15.3098 9.35715C17.6957 6.86908 20.5589 5.1503 23.8996 4.20082C27.2635 3.25545 30.834 3.11575 34.6109 3.78173C38.7143 4.50526 42.1375 5.95026 44.8807 8.1167C47.6471 10.2873 49.6072 12.9407 50.761 16.0769C51.9381 19.2173 52.206 22.606 51.5647 26.2431C51.1125 28.8077 50.3071 31.0576 49.1485 32.9928C48.0133 34.9322 46.5674 36.5884 44.8108 37.9614C43.0775 39.3385 41.074 40.4757 38.8003 41.3729C36.5226 42.2935 34.6404 43.3559 33.154 44.5602C31.6717 45.7412 30.4801 47.2499 29.5794 49.0863C28.6786 50.9228 27.95 53.2824 27.3936 56.1652L27.3196 56.5849L18.9264 55.1049ZM19.7522 76.5976C18.0269 76.2933 16.6554 75.4145 15.6376 73.9609C14.6198 72.5073 14.263 70.9179 14.5672 69.1927C14.8715 67.4674 15.7503 66.0958 17.2039 65.0781C18.6575 64.0603 20.2469 63.7035 21.9722 64.0077C23.6974 64.3119 25.069 65.1908 26.0868 66.6443C27.1045 68.0979 27.4613 69.6873 27.1571 71.4126C26.9557 72.555 26.4793 73.5528 25.7278 74.4059C24.9997 75.2631 24.1064 75.8989 23.0477 76.3132C22.0164 76.7083 20.9179 76.8031 19.7522 76.5976Z" fill="#FF0004"/>
</svg>
